<svg width="18" height="20" viewBox="0 0 18 20" fill="none" xmlns="http://www.w3.org/2000/svg">
<path d="M3.5945 0.316387C3.22915 0.107688 2.81539 -0.00140797 2.39463 1.37193e-05C1.97386 0.00143541 1.56085 0.113325 1.19691 0.324488C0.83297 0.535652 0.530862 0.838685 0.320812 1.20327C0.110762 1.56785 0.000135693 1.9812 0 2.40197V17.484C0.000135693 17.9048 0.110762 18.3181 0.320812 18.6827C0.530862 19.0473 0.83297 19.3503 1.19691 19.5615C1.56085 19.7726 1.97386 19.8845 2.39463 19.8859C2.81539 19.8874 3.22915 19.7783 3.5945 19.5696L16.7904 12.0274C17.1579 11.8171 17.4633 11.5135 17.6757 11.1473C17.8881 10.781 18 10.3652 18 9.94178C18 9.5184 17.8881 9.10253 17.6757 8.73629C17.4633 8.37005 17.1579 8.06644 16.7904 7.8562L3.5945 0.316387Z" fill="white"/>
</svg>
